<svg width="512" height="512" xmlns="http://www.w3.org/2000/svg">
 <g>
  <title>background</title>
  <rect fill="none" id="canvas_background" height="514" width="514" y="-1" x="-1"/>
 </g>

 <g>
  <title>Layer 1</title>
  <g id="svg_4"/>
  <g id="svg_5"/>
  <g id="svg_6"/>
  <g id="svg_7"/>
  <g id="svg_8"/>
  <g id="svg_9"/>
  <g id="svg_10"/>
  <g id="svg_11"/>
  <g id="svg_12"/>
  <g id="svg_13"/>
  <g id="svg_14"/>
  <g id="svg_15"/>
  <g id="svg_16"/>
  <g id="svg_17"/>
  <g id="svg_18"/>
  <g stroke="null" id="svg_1">
   <path stroke="null" id="svg_2" fill="#ff5656" d="m255.94445,1.88897c-140.14506,0 -254.16658,114.33587 -254.16658,254.87621c0,140.53635 114.02151,254.87621 254.16658,254.87621s254.16658,-114.33986 254.16658,-254.87621c0,-140.54034 -114.02151,-254.87621 -254.16658,-254.87621z"/>
   <path stroke="null" id="svg_28" fill="#ff5656" d="m255.94445,1.88897c-140.14506,0 -254.16658,114.33587 -254.16658,254.87621c0,140.53635 114.02151,254.87621 254.16658,254.87621s254.16658,-114.33986 254.16658,-254.87621c0,-140.54034 -114.02151,-254.87621 -254.16658,-254.87621z"/>
   <path stroke="null" id="svg_22" fill="#ffffff" d="m252.90458,85.21058c-92.65407,0 -168.03707,75.59085 -168.03707,168.50624c0,92.91276 75.38302,168.50624 168.03707,168.50624s168.03707,-75.59348 168.03707,-168.50624c0,-92.91539 -75.38302,-168.50624 -168.03707,-168.50624z"/>
   <text stroke="null" fill="#000000" stroke-width="0" stroke-opacity="null" fill-opacity="null" x="178.63551" y="238.38593" id="svg_30" font-size="24" font-family="Helvetica, Arial, sans-serif" text-anchor="start" xml:space="preserve" transform="matrix(14.37118549866001,0,0,11.790916467306763,-2436.102177965263,-2461.7541565968227) ">N</text>
  </g>
 </g>
</svg>