<svg width="511" height="511.99933" xmlns="http://www.w3.org/2000/svg">

 <g>
  <title>background</title>
  <rect fill="none" id="canvas_background" height="514" width="514" y="-1" x="-1"/>
 </g>
 <g>
  <title>Layer 1</title>
  <g stroke="null" id="svg_17">
   <path stroke="null" id="svg_1" fill="#f9c19b" d="m393.1187,354.67522c20.351,0 36.84614,-15.85583 36.84614,-35.4181c0,-19.56225 -16.49882,-35.4181 -36.84614,-35.4181c20.351,0 36.84614,-15.85583 36.84614,-35.4181c0,-19.55872 -16.49882,-35.4181 -36.84614,-35.4181l0,-42.36012c20.351,0 36.84614,-15.85938 36.84614,-35.4181c0,-19.56226 -16.49882,-35.4181 -36.84614,-35.4181l-114.57106,0l0,260.62481"/>
   <g stroke="null" id="svg_2" fill="#e5a67c">
    <path stroke="null" id="svg_3" d="m429.96484,135.22461c0,19.55872 -16.49514,35.4181 -36.84614,35.4181l0,-17.62586c17.18014,0 31.61661,-11.30334 35.68975,-26.60693c0.75129,2.81787 1.15639,5.76672 1.15639,8.8147zm0,0"/>
    <path stroke="null" id="svg_4" d="m429.96484,248.42093c0,19.56226 -16.49514,35.4181 -36.84614,35.4181l0,-17.62586c17.18014,0 31.61661,-11.30334 35.68975,-26.6034c0.75129,2.81433 1.15639,5.76673 1.15639,8.81116zm0,0"/>
    <path stroke="null" id="svg_5" d="m429.96484,319.26066c0,19.55872 -16.49514,35.41455 -36.84614,35.41455l0,-17.62585c17.18014,0 31.61661,-11.29981 35.68975,-26.6034c0.75129,2.81787 1.15639,5.76672 1.15639,8.8147zm0,0"/>
   </g>
   <path stroke="null" id="svg_6" fill="#f9c19b" d="m179.43319,289.32609c20.65299,-39.43605 -59.83033,-40.17945 -74.23365,-82.09706c-6.89415,-20.11451 -29.43272,-31.02137 -50.35823,-24.38379c-20.91447,6.63403 -32.26109,28.3097 -25.3559,48.40296c7.70805,22.4828 5.85561,46.50196 -5.22953,67.65371c0,0 -40.03174,66.57398 -13.90246,122.60573c24.30261,52.12354 82.67088,89.1205 144.52672,93.19155c35.55717,2.33289 70.63926,-8.94922 98.01331,-30.88685l4.33094,-3.47278"/>
   <path stroke="null" id="svg_7" fill="#e5a67c" d="m113.69202,268.08939c0,33.37549 -51.29734,106.51625 0,155.82547c51.29734,49.30921 130.90416,-102.56557 130.90416,-102.56557"/>
   <path stroke="null" id="svg_8" fill="#e5a67c" d="m177.09094,514.39473c-7.33976,0.67969 -14.76423,0.79651 -22.2108,0.30445c-61.85584,-4.07105 -120.22411,-41.068 -144.52672,-93.19155c-26.12928,-56.03175 13.90615,-122.60574 13.90615,-122.60574c11.08146,-21.15173 12.9339,-45.17091 5.22585,-67.6537c-6.90519,-20.09326 4.44143,-41.76893 25.3559,-48.40297c8.65451,-2.74353 17.58524,-2.49219 25.57685,0.18763c-20.55724,6.83581 -31.64238,28.29908 -24.80347,48.21534c7.70804,22.48279 5.85929,46.50196 -5.22586,67.6537c0,0 -40.03542,66.57399 -13.90246,122.60574c23.78702,51.02259 80.21078,87.54872 140.60457,92.8871zm0,0"/>
   <path stroke="null" id="svg_9" fill="#565574" d="m365.11122,50.99999l-221.66976,0c-16.0127,0 -28.99447,12.47864 -28.99447,27.87074l0,373.59455c0,15.3921 12.98177,27.87074 28.99447,27.87074l221.66976,0c16.0127,0 28.99447,-12.47864 28.99447,-27.87074l0,-373.59455c0,-15.3921 -12.98177,-27.87074 -28.99447,-27.87074zm0,0"/>
   <path stroke="null" id="svg_10" fill="#8fd4ef" d="m369.5416,135.79102l0,263.41436c0,11.47682 -9.68569,20.78711 -21.63629,20.78711l-187.26162,0c-6.53324,0 -12.39989,-2.78955 -16.35519,-7.1969c-3.28504,-3.63562 -5.27742,-8.39344 -5.27742,-13.59022l0,-263.41436c0,-11.48743 9.69306,-20.79773 21.6326,-20.79773l187.26162,0c3.72697,0 7.23297,0.90979 10.28599,2.50989c6.76525,3.50819 11.3503,10.3794 11.3503,18.28785zm0,0"/>
   <path stroke="null" id="svg_11" fill="#302e4f" d="m266.87326,451.47761c0,6.69067 -5.642,12.11047 -12.59876,12.11047c-6.95675,0 -12.59508,-5.4198 -12.59508,-12.11047c0,-6.68714 5.63833,-12.10693 12.59508,-12.10693c6.95676,0 12.59876,5.41979 12.59876,12.10693zm0,0"/>
   <path stroke="null" id="svg_12" fill="#302e4f" d="m287.02908,86.99511l-65.50548,0c-4.08788,0 -7.39869,-3.18603 -7.39869,-7.11548c0,-3.9259 3.31081,-7.11194 7.39869,-7.11194l65.50548,0c4.08788,0 7.39869,3.18604 7.39869,7.11194c0,3.92945 -3.3145,7.11548 -7.39869,7.11548zm0,0"/>
   <path stroke="null" id="svg_13" fill="#302e4f" d="m197.58189,86.99511c-2.95727,0 -5.69356,-1.77356 -6.82418,-4.38965c-1.23741,-2.85327 -0.35355,-6.26587 2.136,-8.21997c2.33856,-1.83374 5.66779,-2.12049 8.30834,-0.70801c2.82101,1.50805 4.30885,4.73657 3.60176,7.75977c-0.7476,3.20727 -3.79694,5.55786 -7.22192,5.55786zm0,0"/>
   <path stroke="null" id="svg_14" fill="#c5f1ff" d="m358.19497,117.49964l-219.18758,210.68192l0,-94.17922l123.80377,-119.00551l85.09414,0c3.73065,0 7.23297,0.90271 10.28966,2.50281zm0,0"/>
   <path stroke="null" id="svg_15" fill="#c5f1ff" d="m369.5416,162.52186l0,58.14516l-207.36219,199.32548l-1.53572,0c-6.53324,0 -12.39989,-2.78955 -16.35887,-7.1969c-3.28135,-3.63562 -5.27742,-8.39344 -5.27742,-13.59022l0,-15.08411l230.5342,-221.59941zm0,0"/>
   <path stroke="null" id="svg_16" fill="#302e4f" d="m347.90531,427.10798l-187.26162,0c-16.00901,0 -29.0313,-12.51758 -29.0313,-27.90613l0,-263.40728c0,-15.38855 13.02228,-27.90968 29.0313,-27.90968l187.26162,0c16.00901,0 29.03498,12.52112 29.03498,27.90968l0,263.40728c0,15.38855 -13.02597,27.90613 -29.03498,27.90613zm-187.26162,-304.99921c-7.84799,0 -14.23392,6.13843 -14.23392,13.6858l0,263.40728c0,7.54383 6.38593,13.68225 14.23392,13.68225l187.26162,0c7.85168,0 14.2376,-6.13842 14.2376,-13.68225l0,-263.40728c0,-7.54737 -6.38592,-13.6858 -14.2376,-13.6858l-187.26162,0zm0,0"/>
  </g>
 </g>
</svg>