<?xml version="1.0" encoding="UTF-8" standalone="no"?>
<svg
   xmlns:dc="http://purl.org/dc/elements/1.1/"
   xmlns:cc="http://creativecommons.org/ns#"
   xmlns:rdf="http://www.w3.org/1999/02/22-rdf-syntax-ns#"
   xmlns:svg="http://www.w3.org/2000/svg"
   xmlns="http://www.w3.org/2000/svg"
   xmlns:sodipodi="http://sodipodi.sourceforge.net/DTD/sodipodi-0.dtd"
   xmlns:inkscape="http://www.inkscape.org/namespaces/inkscape"
   width="512"
   height="512"
   version="1.1"
   id="svg31"
   sodipodi:docname="nominado.svg">
  <metadata
     id="metadata37">
    <rdf:RDF>
      <cc:Work
         rdf:about="">
        <dc:format>image/svg+xml</dc:format>
        <dc:type
           rdf:resource="http://purl.org/dc/dcmitype/StillImage" />
      </cc:Work>
    </rdf:RDF>
  </metadata>
  <defs
     id="defs35" />
  <sodipodi:namedview
     pagecolor="#ffffff"
     bordercolor="#666666"
     borderopacity="1"
     objecttolerance="10"
     gridtolerance="10"
     guidetolerance="10"
     inkscape:pageopacity="0"
     inkscape:pageshadow="2"
     inkscape:window-width="640"
     inkscape:window-height="480"
     id="namedview33" />
  <g
     id="g5">
    <title
       id="title2">background</title>
    <path
       id="canvas_background"
       style="fill:none"
       d="M -1,-1 H 513 V 513 H -1 Z" />
  </g>
  <g
     id="g29">
    <title
       id="title7">Layer 1</title>
    <g
       id="svg_4" />
    <g
       id="svg_5" />
    <g
       id="svg_6" />
    <g
       id="svg_7" />
    <g
       id="svg_8" />
    <g
       id="svg_9" />
    <g
       id="svg_10" />
    <g
       id="svg_11" />
    <g
       id="svg_12" />
    <g
       id="svg_13" />
    <g
       id="svg_14" />
    <g
       id="svg_15" />
    <g
       id="svg_16" />
    <g
       id="svg_17" />
    <g
       id="svg_18" />
    <g
       stroke="#ffffff"
       id="svg_1">
      <path
         stroke="#ffffff"
         id="svg_2"
         fill="#898989"
         d="m 255.94445,1.88897 c -140.14506,0 -254.16658,114.33587 -254.16658,254.87621 0,140.53635 114.02151,254.87621 254.16658,254.87621 140.14507,0 254.16658,-114.33986 254.16658,-254.87621 0,-140.54034 -114.02151,-254.87621 -254.16658,-254.87621 z" />
      <path
         stroke="#ffffff"
         id="svg_28"
         fill="#898989"
         d="m 255.94445,1.88897 c -140.14506,0 -254.16658,114.33587 -254.16658,254.87621 0,140.53635 114.02151,254.87621 254.16658,254.87621 140.14507,0 254.16658,-114.33986 254.16658,-254.87621 0,-140.54034 -114.02151,-254.87621 -254.16658,-254.87621 z" />
      <path
         stroke="#ffffff"
         id="svg_22"
         fill="#ffffff"
         d="m 252.90458,85.21058 c -92.65407,0 -168.03707,75.59085 -168.03707,168.50624 0,92.91276 75.38302,168.50624 168.03707,168.50624 92.65405,0 168.03707,-75.59348 168.03707,-168.50624 0,-92.91539 -75.38302,-168.50624 -168.03707,-168.50624 z" />
      <g
         aria-label="N"
         transform="matrix(14.371185,0,0,11.790916,-2436.1022,-2461.7542)"
         id="svg_30"
         style="font-size:24px;font-family:Helvetica, Arial, sans-serif;text-anchor:start;fill:#000000;stroke:#ffffff;stroke-width:0">
        <path
           d="m 194.13951,220.88993 h -2.112 v 14.304 l -9.144,-14.304 h -2.424 v 17.496 h 2.112 v -14.184 l 9.048,14.184 h 2.52 z"
           style="font-size:24px;font-family:Helvetica, Arial, sans-serif;text-anchor:start;fill:#000000;stroke:#ffffff;stroke-width:0"
           id="path40" />
      </g>
    </g>
  </g>
</svg>
