<svg width="512" height="512" xmlns="http://www.w3.org/2000/svg">

 <g>
  <title>background</title>
  <rect fill="none" id="canvas_background" height="514" width="514" y="-1" x="-1"/>
 </g>
 <g>
  <title>Layer 1</title>
  <g stroke="null" id="svg_26">
   <path stroke="null" id="svg_1" fill="#C8C6CD" d="m231.38501,67.01301c-68.70459,0 -124.71074,54.41255 -124.71074,121.16386l0,67.55763c0,6.16938 4.98792,11.0147 11.33713,11.0147l45.34929,0c6.34997,0 11.33713,-4.84605 11.33713,-11.0147l0,-67.55763c0,-30.40112 25.39536,-55.07421 56.68643,-55.07421s56.68643,24.6731 56.68643,55.07421l0,22.02939c0,6.16938 4.98792,11.0147 11.33713,11.0147l45.34929,0c6.34997,0 11.33713,-4.84605 11.33713,-11.0147l0,-22.02939c0.00151,-66.7513 -56.00464,-121.16386 -124.70923,-121.16386z"/>
   <path stroke="null" id="svg_2" fill="#FEA832" d="m344.75786,244.7198l-226.74571,0c-18.8209,0 -34.01216,14.75994 -34.01216,33.04482l0,132.17855c0,18.28561 15.19126,33.04482 34.01216,33.04482l226.74646,0c18.8209,0 34.01216,-14.75921 34.01216,-33.04482l0,-132.17855c-0.00076,-18.28488 -15.19202,-33.04482 -34.01291,-33.04482z"/>
   <path stroke="null" id="svg_3" fill="#AEADB3" d="m356.09575,188.17686l0,22.02939c0,6.16938 -4.98792,11.0147 -11.33713,11.0147l-45.34929,0c-6.34997,0 -11.33713,-4.84605 -11.33713,-11.0147l0,-22.02939c0,-30.40112 -25.39536,-55.07421 -56.68643,-55.07421l0,-66.08964c68.70383,0 124.70999,54.41255 124.70999,121.16386z"/>
   <g stroke="null" id="svg_4">
    <path stroke="null" id="svg_5" fill="#159CE4" d="m409.22284,179.79192l45.34929,-22.02939c13.45354,-6.51012 23.47472,13.2288 10.14136,19.7066l-45.34929,22.02939c-13.46715,6.49837 -23.48077,-13.22586 -10.14136,-19.7066z"/>
    <path stroke="null" id="svg_6" fill="#159CE4" d="m454.57213,309.64695l-45.34929,-22.03013c-13.34394,-6.48221 -3.32805,-26.21085 10.14136,-19.7066l45.34929,22.02939c13.24643,6.43595 3.46486,26.27254 -10.14136,19.70734z"/>
    <path stroke="null" id="svg_7" fill="#159CE4" d="m459.64319,244.7198l-45.34929,0c-14.94485,0 -15.00608,-22.02939 0,-22.02939l45.34929,0c14.94485,-0.00073 15.00608,22.02939 0,22.02939z"/>
   </g>
   <path stroke="null" id="svg_8" fill="#FE8821" d="m378.77002,277.76462l0,132.17855c0,18.28561 -15.19126,33.04482 -34.01216,33.04482l-113.37285,0l0,-198.2682l113.37285,0c18.8209,0 34.01216,14.75994 34.01216,33.04482z"/>
   <path stroke="null" id="svg_9" fill="#787780" d="m265.39717,321.82414c0,14.32006 -9.52232,26.43556 -22.67427,31.06131l0,35.02833c0,7.27092 -5.66895,11.0147 -11.33713,11.0147s-11.33713,-3.74451 -11.33713,-11.0147l0,-35.02833c-13.15195,-4.62575 -22.67427,-16.74125 -22.67427,-31.06131c0,-18.28561 15.19126,-33.04482 34.01216,-33.04482s34.01065,14.75994 34.01065,33.04482z"/>
   <path stroke="null" id="svg_10" fill="#57555C" d="m265.39717,321.82414c0,14.32006 -9.52232,26.43556 -22.67427,31.06131l0,35.02833c0,7.27092 -5.66895,11.0147 -11.33713,11.0147l0,-110.14916c18.82014,0 34.0114,14.75994 34.0114,33.04482z"/>
   <g stroke="null" id="svg_11"/>
   <g stroke="null" id="svg_12"/>
   <g stroke="null" id="svg_13"/>
   <g stroke="null" id="svg_14"/>
   <g stroke="null" id="svg_15"/>
   <g stroke="null" id="svg_16"/>
   <g stroke="null" id="svg_17"/>
   <g stroke="null" id="svg_18"/>
   <g stroke="null" id="svg_19"/>
   <g stroke="null" id="svg_20"/>
   <g stroke="null" id="svg_21"/>
   <g stroke="null" id="svg_22"/>
   <g stroke="null" id="svg_23"/>
   <g stroke="null" id="svg_24"/>
   <g stroke="null" id="svg_25"/>
  </g>
 </g>
</svg>