<?xml version="1.0" encoding="UTF-8" standalone="no"?>
<svg
   xmlns:dc="http://purl.org/dc/elements/1.1/"
   xmlns:cc="http://creativecommons.org/ns#"
   xmlns:rdf="http://www.w3.org/1999/02/22-rdf-syntax-ns#"
   xmlns:svg="http://www.w3.org/2000/svg"
   xmlns="http://www.w3.org/2000/svg"
   xmlns:sodipodi="http://sodipodi.sourceforge.net/DTD/sodipodi-0.dtd"
   xmlns:inkscape="http://www.inkscape.org/namespaces/inkscape"
   width="512"
   height="512"
   version="1.1"
   id="svg30"
   sodipodi:docname="unidadIcon.svg">
  <metadata
     id="metadata36">
    <rdf:RDF>
      <cc:Work
         rdf:about="">
        <dc:format>image/svg+xml</dc:format>
        <dc:type
           rdf:resource="http://purl.org/dc/dcmitype/StillImage" />
      </cc:Work>
    </rdf:RDF>
  </metadata>
  <defs
     id="defs34" />
  <sodipodi:namedview
     pagecolor="#ffffff"
     bordercolor="#666666"
     borderopacity="1"
     objecttolerance="10"
     gridtolerance="10"
     guidetolerance="10"
     inkscape:pageopacity="0"
     inkscape:pageshadow="2"
     inkscape:window-width="640"
     inkscape:window-height="480"
     id="namedview32" />
  <g
     id="g5">
    <title
       id="title2">background</title>
    <path
       id="canvas_background"
       style="fill:none"
       d="M -1,-1 H 513 V 513 H -1 Z" />
  </g>
  <g
     id="g28">
    <title
       id="title7">Layer 1</title>
    <g
       id="svg_4" />
    <g
       id="svg_5" />
    <g
       id="svg_6" />
    <g
       id="svg_7" />
    <g
       id="svg_8" />
    <g
       id="svg_9" />
    <g
       id="svg_10" />
    <g
       id="svg_11" />
    <g
       id="svg_12" />
    <g
       id="svg_13" />
    <g
       id="svg_14" />
    <g
       id="svg_15" />
    <g
       id="svg_16" />
    <g
       id="svg_17" />
    <g
       id="svg_18" />
    <path
       d="m 255.94445,1.88897 c -140.14506,0 -254.16658,114.33587 -254.16658,254.87621 0,140.53635 114.02151,254.87621 254.16658,254.87621 140.14507,0 254.16658,-114.33986 254.16658,-254.87621 0,-140.54034 -114.02151,-254.87621 -254.16658,-254.87621 z"
       fill="#ff5656"
       id="svg_2"
       stroke="#ffffff" />
    <path
       d="m 255.94445,1.88897 c -140.14506,0 -254.16658,114.33587 -254.16658,254.87621 0,140.53635 114.02151,254.87621 254.16658,254.87621 140.14507,0 254.16658,-114.33986 254.16658,-254.87621 0,-140.54034 -114.02151,-254.87621 -254.16658,-254.87621 z"
       fill="#ff5656"
       id="svg_28"
       stroke="#ffffff" />
    <path
       d="m 252.90458,85.21058 c -92.65407,0 -168.03707,75.59085 -168.03707,168.50624 0,92.91276 75.38302,168.50624 168.03707,168.50624 92.65405,0 168.03707,-75.59348 168.03707,-168.50624 0,-92.91539 -75.38302,-168.50624 -168.03707,-168.50624 z"
       fill="#ffffff"
       id="svg_22"
       stroke="#ffffff" />
    <g
       aria-label="U"
       transform="matrix(14.371185,0,0,11.790916,-2436.1022,-2461.7542)"
       id="svg_30"
       style="font-size:24px;font-family:Helvetica, Arial, sans-serif;text-anchor:start;fill:#000000;stroke:#ffffff;stroke-width:0">
      <path
         d="m 191.88351,221.82285 v 12.288 c 0,2.352 -1.704,3.792 -4.512,3.792 -1.296,0 -2.352,-0.312 -3.192,-0.912 -0.864,-0.672 -1.272,-1.56 -1.272,-2.88 v -12.288 h -2.232 v 12.288 c 0,3.552 2.544,5.76 6.696,5.76 4.104,0 6.744,-2.256 6.744,-5.76 v -12.288 z"
         style="font-size:24px;font-family:Helvetica, Arial, sans-serif;text-anchor:start;fill:#000000;stroke:#ffffff;stroke-width:0"
         id="path39" />
    </g>
  </g>
</svg>
