<svg width="512" height="512" xmlns="http://www.w3.org/2000/svg">
 <metadata id="metadata36">image/svg+xml</metadata>

 <g id="g5">
  <title>background</title>
  <path height="514" width="514" y="-1" x="-1" fill="none" d="m-1,-1l514,0l0,514l-514,0l0,-514z" id="canvas_background"/>
 </g>
 <g id="g28">
  <title>Layer 1</title>
  <g id="svg_4"/>
  <g id="svg_5"/>
  <g id="svg_6"/>
  <g id="svg_7"/>
  <g id="svg_8"/>
  <g id="svg_9"/>
  <g id="svg_10"/>
  <g id="svg_11"/>
  <g id="svg_12"/>
  <g id="svg_13"/>
  <g id="svg_14"/>
  <g id="svg_15"/>
  <g id="svg_16"/>
  <g id="svg_17"/>
  <g id="svg_18"/>
  <path stroke="#ffffff" id="svg_2" fill="#898989" d="m255.94445,1.88897c-140.14506,0 -254.16658,114.33587 -254.16658,254.87621c0,140.53635 114.02151,254.87621 254.16658,254.87621c140.14507,0 254.16658,-114.33986 254.16658,-254.87621c0,-140.54034 -114.02151,-254.87621 -254.16658,-254.87621z"/>
  <path stroke="null" id="svg_28" fill="#898989" d="m255.94445,1.88897c-140.14506,0 -254.16658,114.33587 -254.16658,254.87621c0,140.53635 114.02151,254.87621 254.16658,254.87621c140.14507,0 254.16658,-114.33986 254.16658,-254.87621c0,-140.54034 -114.02151,-254.87621 -254.16658,-254.87621z"/>
  <path stroke="#ffffff" id="svg_22" fill="#ffffff" d="m252.90458,85.21058c-92.65407,0 -168.03707,75.59085 -168.03707,168.50624c0,92.91276 75.38302,168.50624 168.03707,168.50624c92.65405,0 168.03707,-75.59348 168.03707,-168.50624c0,-92.91539 -75.38302,-168.50624 -168.03707,-168.50624z"/>
  <g font-size="24px" font-family="Helvetica, Arial, sans-serif" text-anchor="start" fill="#000000" stroke="#ffffff" stroke-width="0" id="svg_30" transform="matrix(14.371185,0,0,11.790916,-2436.1022,-2461.7542) ">
   <path fill="#000000" stroke="#ffffff" stroke-width="0" id="path39" d="m191.88351,221.82285l0,12.288c0,2.352 -1.704,3.792 -4.512,3.792c-1.296,0 -2.352,-0.312 -3.192,-0.912c-0.864,-0.672 -1.272,-1.56 -1.272,-2.88l0,-12.288l-2.232,0l0,12.288c0,3.552 2.544,5.76 6.696,5.76c4.104,0 6.744,-2.256 6.744,-5.76l0,-12.288l-2.232,0z"/>
  </g>
  <metadata transform="matrix(0.11111111773384952,0,0,0.11111111773384952,0,0) " id="svg_69">image/svg+xml</metadata>
 </g>
</svg>