<?xml version="1.0" encoding="iso-8859-1"?>
<!-- Generator: Adobe Illustrator 19.0.0, SVG Export Plug-In . SVG Version: 6.00 Build 0)  -->
<svg version="1.1" id="Layer_1" xmlns="http://www.w3.org/2000/svg" xmlns:xlink="http://www.w3.org/1999/xlink" x="0px" y="0px"
	 viewBox="0 0 512 512" style="enable-background:new 0 0 512 512;" xml:space="preserve">
<g>
	<g>
		<path d="M256,0c-69.648,0-126.096,56.096-126.096,125.28S186.368,250.56,256,250.56s126.096-56.096,126.096-125.28
			S325.648,0,256,0z M256,218.56c-51.888,0-94.096-41.84-94.096-93.28S204.112,32,256,32s94.096,41.84,94.096,93.28
			S307.888,218.56,256,218.56z"/>
	</g>
</g>
<g>
	<g>
		<path d="M335.264,279.104H176.752c-0.016,0-113.872,1.264-113.872,105.536c0,103.648,0,127.36,0,127.36h386.24
			c0,0,0-23.712,0-127.36S335.264,279.104,335.264,279.104z M417.12,480H94.88v-95.36c0-68.288,68.624-73.248,81.856-73.536H334.96
			c9.488,0.192,82.16,4,82.16,73.536V480z"/>
	</g>
</g>
<g>
</g>
<g>
</g>
<g>
</g>
<g>
</g>
<g>
</g>
<g>
</g>
<g>
</g>
<g>
</g>
<g>
</g>
<g>
</g>
<g>
</g>
<g>
</g>
<g>
</g>
<g>
</g>
<g>
</g>
</svg>
